<svg xmlns="http://www.w3.org/2000/svg" width="16" height="16" viewBox="0 0 16 16">
    <rect x="2" y="1" width="1" height="1" fill="black"/>
    <rect x="5" y="2" width="1" height="1" fill="black"/>
    <rect x="6" y="2" width="1" height="1" fill="black"/>
    <rect x="9" y="2" width="1" height="1" fill="black"/>
    <rect x="10" y="2" width="1" height="1" fill="black"/>
    <rect x="2" y="3" width="1" height="1" fill="black"/>
    <rect x="4" y="3" width="1" height="1" fill="black"/>
    <rect x="6" y="3" width="1" height="1" fill="black"/>
    <rect x="8" y="3" width="1" height="1" fill="black"/>
    <rect x="9" y="3" width="1" height="1" fill="black"/>
    <rect x="10" y="3" width="1" height="1" fill="black"/>
    <rect x="11" y="3" width="1" height="1" fill="black"/>
    <rect x="2" y="4" width="1" height="1" fill="black"/>
    <rect x="5" y="4" width="1" height="1" fill="black"/>
    <rect x="6" y="4" width="1" height="1" fill="black"/>
    <rect x="8" y="4" width="1" height="1" fill="black"/>
    <rect x="10" y="4" width="1" height="1" fill="black"/>
    <rect x="11" y="4" width="1" height="1" fill="black"/>
    <rect x="5" y="6" width="1" height="1" fill="black"/>
    <rect x="2" y="7" width="1" height="1" fill="black"/>
    <rect x="3" y="7" width="1" height="1" fill="black"/>
    <rect x="5" y="7" width="1" height="1" fill="black"/>
    <rect x="6" y="7" width="1" height="1" fill="black"/>
    <rect x="10" y="7" width="1" height="1" fill="black"/>
    <rect x="11" y="7" width="1" height="1" fill="black"/>
    <rect x="1" y="8" width="1" height="1" fill="black"/>
    <rect x="3" y="8" width="1" height="1" fill="black"/>
    <rect x="5" y="8" width="1" height="1" fill="black"/>
    <rect x="7" y="8" width="1" height="1" fill="black"/>
    <rect x="9" y="8" width="1" height="1" fill="black"/>
    <rect x="10" y="8" width="1" height="1" fill="black"/>
    <rect x="2" y="9" width="1" height="1" fill="black"/>
    <rect x="3" y="9" width="1" height="1" fill="black"/>
    <rect x="5" y="9" width="1" height="1" fill="black"/>
    <rect x="7" y="9" width="1" height="1" fill="black"/>
    <rect x="10" y="9" width="1" height="1" fill="black"/>
    <rect x="11" y="9" width="1" height="1" fill="black"/>
    <rect x="13" y="9" width="1" height="1" fill="black"/>
    <rect x="10" y="11" width="1" height="1" fill="black"/>
    <rect x="2" y="12" width="1" height="1" fill="black"/>
    <rect x="3" y="12" width="1" height="1" fill="black"/>
    <rect x="5" y="12" width="1" height="1" fill="black"/>
    <rect x="7" y="12" width="1" height="1" fill="black"/>
    <rect x="9" y="12" width="1" height="1" fill="black"/>
    <rect x="10" y="12" width="1" height="1" fill="black"/>
    <rect x="11" y="12" width="1" height="1" fill="black"/>
    <rect x="1" y="13" width="1" height="1" fill="black"/>
    <rect x="3" y="13" width="1" height="1" fill="black"/>
    <rect x="5" y="13" width="1" height="1" fill="black"/>
    <rect x="6" y="13" width="1" height="1" fill="black"/>
    <rect x="10" y="13" width="1" height="1" fill="black"/>
    <rect x="2" y="14" width="1" height="1" fill="black"/>
    <rect x="3" y="14" width="1" height="1" fill="black"/>
    <rect x="5" y="14" width="1" height="1" fill="black"/>
    <rect x="11" y="14" width="1" height="1" fill="black"/>
</svg>
