<svg xmlns="http://www.w3.org/2000/svg" width="320" height="320" viewBox="0 0 320 320"><rect x="20" y="20" width="20" height="20" fill="black"/><rect x="80" y="40" width="20" height="20" fill="black"/><rect x="100" y="40" width="20" height="20" fill="black"/><rect x="160" y="40" width="20" height="20" fill="black"/><rect x="200" y="40" width="20" height="20" fill="black"/><rect x="20" y="60" width="20" height="20" fill="black"/><rect x="60" y="60" width="20" height="20" fill="black"/><rect x="100" y="60" width="20" height="20" fill="black"/><rect x="140" y="60" width="20" height="20" fill="black"/><rect x="180" y="60" width="20" height="20" fill="black"/><rect x="220" y="60" width="20" height="20" fill="black"/><rect x="20" y="80" width="20" height="20" fill="black"/><rect x="80" y="80" width="20" height="20" fill="black"/><rect x="100" y="80" width="20" height="20" fill="black"/><rect x="140" y="80" width="20" height="20" fill="black"/><rect x="180" y="80" width="20" height="20" fill="black"/><rect x="220" y="80" width="20" height="20" fill="black"/><rect x="100" y="120" width="20" height="20" fill="black"/><rect x="40" y="140" width="20" height="20" fill="black"/><rect x="60" y="140" width="20" height="20" fill="black"/><rect x="100" y="140" width="20" height="20" fill="black"/><rect x="120" y="140" width="20" height="20" fill="black"/><rect x="200" y="140" width="20" height="20" fill="black"/><rect x="220" y="140" width="20" height="20" fill="black"/><rect x="20" y="160" width="20" height="20" fill="black"/><rect x="60" y="160" width="20" height="20" fill="black"/><rect x="100" y="160" width="20" height="20" fill="black"/><rect x="140" y="160" width="20" height="20" fill="black"/><rect x="180" y="160" width="20" height="20" fill="black"/><rect x="200" y="160" width="20" height="20" fill="black"/><rect x="40" y="180" width="20" height="20" fill="black"/><rect x="60" y="180" width="20" height="20" fill="black"/><rect x="100" y="180" width="20" height="20" fill="black"/><rect x="140" y="180" width="20" height="20" fill="black"/><rect x="200" y="180" width="20" height="20" fill="black"/><rect x="220" y="180" width="20" height="20" fill="black"/><rect x="260" y="180" width="20" height="20" fill="black"/><rect x="200" y="220" width="20" height="20" fill="black"/><rect x="40" y="240" width="20" height="20" fill="black"/><rect x="60" y="240" width="20" height="20" fill="black"/><rect x="100" y="240" width="20" height="20" fill="black"/><rect x="140" y="240" width="20" height="20" fill="black"/><rect x="180" y="240" width="20" height="20" fill="black"/><rect x="200" y="240" width="20" height="20" fill="black"/><rect x="220" y="240" width="20" height="20" fill="black"/><rect x="20" y="260" width="20" height="20" fill="black"/><rect x="60" y="260" width="20" height="20" fill="black"/><rect x="100" y="260" width="20" height="20" fill="black"/><rect x="120" y="260" width="20" height="20" fill="black"/><rect x="200" y="260" width="20" height="20" fill="black"/><rect x="40" y="280" width="20" height="20" fill="black"/><rect x="60" y="280" width="20" height="20" fill="black"/><rect x="100" y="280" width="20" height="20" fill="black"/><rect x="220" y="280" width="20" height="20" fill="black"/></svg>
