<svg width="200" height="200" viewBox="0 0 16 16" xmlns="http://www.w3.org/2000/svg">
  <rect width="1" height="1" x="1" y="1" fill="black" />
  <rect width="1" height="1" x="1" y="3" fill="black" />
  <rect width="1" height="1" x="1" y="4" fill="black" />
  <rect width="1" height="1" x="1" y="7" fill="black" />
  <rect width="1" height="1" x="1" y="11" fill="black" />
  <rect width="1" height="1" x="2" y="6" fill="black" />
  <rect width="1" height="1" x="2" y="8" fill="black" />
  <rect width="1" height="1" x="2" y="10" fill="black" />
  <rect width="1" height="1" x="2" y="12" fill="black" />
  <rect width="1" height="1" x="3" y="3" fill="black" />
  <rect width="1" height="1" x="3" y="7" fill="black" />
  <rect width="1" height="1" x="3" y="11" fill="black" />
  <rect width="1" height="1" x="4" y="2" fill="black" />
  <rect width="1" height="1" x="4" y="4" fill="black" />
  <rect width="1" height="1" x="4" y="8" fill="black" />
  <rect width="1" height="1" x="4" y="12" fill="black" />
  <rect width="1" height="1" x="5" y="3" fill="black" />
  <rect width="1" height="1" x="6" y="4" fill="black" />
  <rect width="1" height="1" x="6" y="6" fill="black" />
  <rect width="1" height="1" x="6" y="7" fill="black" />
  <rect width="1" height="1" x="6" y="8" fill="black" />
  <rect width="1" height="1" x="6" y="10" fill="black" />
  <rect width="1" height="1" x="6" y="11" fill="black" />
  <rect width="1" height="1" x="6" y="12" fill="black" />
  <rect width="1" height="1" x="7" y="7" fill="black" />
  <rect width="1" height="1" x="7" y="11" fill="black" />
  <rect width="1" height="1" x="8" y="4" fill="black" />
  <rect width="1" height="1" x="8" y="8" fill="black" />
  <rect width="1" height="1" x="8" y="10" fill="black" />
  <rect width="1" height="1" x="9" y="3" fill="black" />
  <rect width="1" height="1" x="10" y="4" fill="black" />
  <rect width="1" height="1" x="10" y="7" fill="black" />
  <rect width="1" height="1" x="10" y="11" fill="black" />
  <rect width="1" height="1" x="11" y="3" fill="black" />
  <rect width="1" height="1" x="11" y="6" fill="black" />
  <rect width="1" height="1" x="11" y="7" fill="black" />
  <rect width="1" height="1" x="11" y="8" fill="black" />
  <rect width="1" height="1" x="11" y="10" fill="black" />
  <rect width="1" height="1" x="11" y="11" fill="black" />
  <rect width="1" height="1" x="11" y="12" fill="black" />
  <rect width="1" height="1" x="12" y="4" fill="black" />
  <rect width="1" height="1" x="12" y="6" fill="black" />
  <rect width="1" height="1" x="12" y="8" fill="black" />
  <rect width="1" height="1" x="12" y="11" fill="black" />
  <rect width="1" height="1" x="12" y="13" fill="black" />
  <rect width="1" height="1" x="14" y="8" fill="black" />
</svg>
