<svg width="16" height="16" xmlns="http://www.w3.org/2000/svg">
  <rect width="1" height="1" x="1" y="1" fill="black" />
  <rect width="1" height="1" x="3" y="1" fill="black" />
  <rect width="1" height="1" x="4" y="1" fill="black" />
  <rect width="1" height="1" x="7" y="1" fill="black" />
  <rect width="1" height="1" x="11" y="1" fill="black" />
  <rect width="1" height="1" x="6" y="2" fill="black" />
  <rect width="1" height="1" x="8" y="2" fill="black" />
  <rect width="1" height="1" x="10" y="2" fill="black" />
  <rect width="1" height="1" x="12" y="2" fill="black" />
  <rect width="1" height="1" x="3" y="3" fill="black" />
  <rect width="1" height="1" x="7" y="3" fill="black" />
  <rect width="1" height="1" x="11" y="3" fill="black" />
  <rect width="1" height="1" x="2" y="4" fill="black" />
  <rect width="1" height="1" x="4" y="4" fill="black" />
  <rect width="1" height="1" x="8" y="4" fill="black" />
  <rect width="1" height="1" x="12" y="4" fill="black" />
  <rect width="1" height="1" x="3" y="5" fill="black" />
  <rect width="1" height="1" x="4" y="6" fill="black" />
  <rect width="1" height="1" x="6" y="6" fill="black" />
  <rect width="1" height="1" x="7" y="6" fill="black" />
  <rect width="1" height="1" x="8" y="6" fill="black" />
  <rect width="1" height="1" x="10" y="6" fill="black" />
  <rect width="1" height="1" x="11" y="6" fill="black" />
  <rect width="1" height="1" x="12" y="6" fill="black" />
  <rect width="1" height="1" x="7" y="7" fill="black" />
  <rect width="1" height="1" x="11" y="7" fill="black" />
  <rect width="1" height="1" x="4" y="8" fill="black" />
  <rect width="1" height="1" x="8" y="8" fill="black" />
  <rect width="1" height="1" x="10" y="8" fill="black" />
  <rect width="1" height="1" x="3" y="9" fill="black" />
  <rect width="1" height="1" x="4" y="10" fill="black" />
  <rect width="1" height="1" x="7" y="10" fill="black" />
  <rect width="1" height="1" x="11" y="10" fill="black" />
  <rect width="1" height="1" x="3" y="11" fill="black" />
  <rect width="1" height="1" x="6" y="11" fill="black" />
  <rect width="1" height="1" x="7" y="11" fill="black" />
  <rect width="1" height="1" x="8" y="11" fill="black" />
  <rect width="1" height="1" x="10" y="11" fill="black" />
  <rect width="1" height="1" x="11" y="11" fill="black" />
  <rect width="1" height="1" x="12" y="11" fill="black" />
  <rect width="1" height="1" x="4" y="12" fill="black" />
  <rect width="1" height="1" x="6" y="12" fill="black" />
  <rect width="1" height="1" x="8" y="12" fill="black" />
  <rect width="1" height="1" x="11" y="12" fill="black" />
  <rect width="1" height="1" x="13" y="12" fill="black" />
  <rect width="1" height="1" x="8" y="14" fill="black" />
</svg>