<svg xmlns="http://www.w3.org/2000/svg" viewBox="0 0 3 5" width="3" height="5">
  <rect x="0" y="0" width="1" height="1" fill="none"/>
  <rect x="0" y="1" width="1" height="1" fill="none"/>
  <rect x="0" y="2" width="1" height="1" fill="black"/>
  <rect x="0" y="3" width="1" height="1" fill="none"/>
  <rect x="0" y="4" width="1" height="1" fill="none"/>

  <rect x="1" y="0" width="1" height="1" fill="none"/>
  <rect x="1" y="1" width="1" height="1" fill="black"/>
  <rect x="1" y="2" width="1" height="1" fill="black"/>
  <rect x="1" y="3" width="1" height="1" fill="black"/>
  <rect x="1" y="4" width="1" height="1" fill="none"/>

  <rect x="2" y="0" width="1" height="1" fill="none"/>
  <rect x="2" y="1" width="1" height="1" fill="black"/>
  <rect x="2" y="2" width="1" height="1" fill="none"/>
  <rect x="2" y="3" width="1" height="1" fill="black"/>
  <rect x="2" y="4" width="1" height="1" fill="none"/>
</svg>